<?xml version="1.0" encoding="utf-8"?>
<!-- Designed by Vexels.com - 2016 All Rights Reserved - https://vexels.com/terms-and-conditions/  -->

<svg version="1.1" id="Layer_1" xmlns="http://www.w3.org/2000/svg" xmlns:xlink="http://www.w3.org/1999/xlink" x="0px" y="0px"
	 width="1200px" height="1200px" viewBox="0 0 1200 1200" enable-background="new 0 0 1200 1200" xml:space="preserve">
<g>
	<path fill="#009EE2" d="M624.109,601.647c3.802-21.525,28.084-36.139,58.949-64.242c36.635-33.388,64.188-92.452,5.675-137.249
		c-64.947-49.712-139.766-3.791-139.766-3.791s-93.247,55.082,5.848,144.58c30.32,27.242,50.991,42.358,55.631,60.774l6.56,36.677
		L624.109,601.647z"/>
	<path fill="#009EE2" d="M661.808,724.582l-47.655-50.776l-47.721,50.776H99.221C72.04,724.582,50,746.609,50,773.78
		c0,27.146,22.04,49.186,49.221,49.186H1150v-98.384H661.808z"/>
</g>
</svg>
